<?xml version="1.0" encoding="UTF-8"?>
<svg id="Layer_1" data-name="Layer 1" xmlns="http://www.w3.org/2000/svg" viewBox="0 0 195.31 51.63">
  <defs>
    <style>
      .cls-1 {
        fill: #fff;
      }
    </style>
  </defs>
  <path class="cls-1" d="M1.6,36.59l1.6-4.03c2.47,1.83,5.29,2.74,8.46,2.74,1.37,0,2.43-.23,3.18-.69.75-.46,1.12-1.1,1.12-1.92,0-.7-.26-1.26-.78-1.67-.52-.41-1.4-.77-2.65-1.08l-3.84-.87c-4.21-.91-6.31-3.06-6.31-6.45,0-1.4.4-2.64,1.19-3.73.79-1.08,1.91-1.93,3.34-2.54,1.43-.61,3.09-.92,4.98-.92,1.65,0,3.23.25,4.76.75,1.52.5,2.87,1.23,4.02,2.17l-1.69,3.89c-2.32-1.71-4.7-2.56-7.13-2.56-1.31,0-2.33.25-3.06.73-.73.49-1.1,1.16-1.1,2.01,0,.67.22,1.21.66,1.6.44.4,1.2.73,2.26,1.01l3.93.87c2.29.52,3.96,1.32,5.01,2.4,1.05,1.08,1.58,2.49,1.58,4.23,0,2.13-.85,3.83-2.56,5.08-1.71,1.25-4.04,1.88-7,1.88-4.18,0-7.5-.98-9.97-2.93Z"/>
  <path class="cls-1" d="M33.43,20.35v10.33c0,2.71,1.26,4.07,3.8,4.07.7,0,1.46-.12,2.29-.37v4.53c-1.01.37-2.23.55-3.66.55-2.62,0-4.63-.73-6.04-2.2-1.4-1.46-2.1-3.57-2.1-6.31v-10.61h-4.44v-4.3h4.44v-5.62l5.72-1.92v7.55h6.13v4.3h-6.13Z"/>
  <path class="cls-1" d="M63.98,16.05v23.09h-5.58v-3.57c-.73,1.28-1.71,2.26-2.93,2.93-1.22.67-2.62,1.01-4.21,1.01-5.64,0-8.46-3.17-8.46-9.51v-13.95h5.67v13.99c0,1.68.34,2.91,1.03,3.7.69.79,1.75,1.19,3.18,1.19,1.68,0,3.02-.55,4.02-1.65,1.01-1.1,1.51-2.56,1.51-4.39v-12.85h5.76Z"/>
  <path class="cls-1" d="M91.84,5.49v33.66h-5.63v-3.7c-.7,1.28-1.71,2.28-3.02,3-1.31.72-2.81,1.08-4.48,1.08-1.98,0-3.75-.5-5.3-1.51-1.56-1.01-2.77-2.43-3.64-4.28-.87-1.84-1.3-3.96-1.3-6.33s.43-4.47,1.28-6.27c.85-1.8,2.06-3.19,3.61-4.18,1.55-.99,3.34-1.49,5.35-1.49,1.65,0,3.12.34,4.41,1.03,1.3.69,2.29,1.65,3,2.9V5.49h5.72ZM84.64,33.07c1.05-1.31,1.58-3.17,1.58-5.58s-.52-4.27-1.55-5.58c-1.04-1.31-2.5-1.97-4.39-1.97s-3.41.65-4.46,1.94-1.58,3.13-1.58,5.51.53,4.28,1.58,5.62,2.52,2.01,4.41,2.01,3.36-.66,4.41-1.97Z"/>
  <path class="cls-1" d="M103.51,5.58v5.62h-6.36v-5.62h6.36ZM97.52,16.05h5.67v23.09h-5.67v-23.09Z"/>
  <path class="cls-1" d="M113.12,38.05c-1.78-.98-3.16-2.37-4.12-4.18-.96-1.81-1.44-3.94-1.44-6.38s.48-4.57,1.44-6.38,2.33-3.21,4.12-4.18,3.85-1.46,6.2-1.46,4.36.49,6.13,1.46c1.77.98,3.13,2.37,4.09,4.18s1.44,3.94,1.44,6.38-.48,4.57-1.44,6.38c-.96,1.81-2.33,3.21-4.09,4.18-1.77.98-3.81,1.46-6.13,1.46s-4.41-.49-6.2-1.46ZM123.73,33.13c1.02-1.26,1.53-3.15,1.53-5.65s-.52-4.35-1.56-5.65c-1.04-1.3-2.5-1.94-4.39-1.94s-3.4.65-4.44,1.94c-1.04,1.3-1.55,3.18-1.55,5.65s.51,4.38,1.53,5.65c1.02,1.27,2.49,1.9,4.41,1.9s3.44-.63,4.46-1.9Z"/>
  <path class="cls-1" d="M142.71,20.35v10.33c0,2.71,1.27,4.07,3.8,4.07.7,0,1.46-.12,2.29-.37v4.53c-1.01.37-2.23.55-3.66.55-2.62,0-4.63-.73-6.04-2.2-1.4-1.46-2.1-3.57-2.1-6.31v-10.61h-4.44v-4.3h4.44v-5.62l5.72-1.92v7.55h6.13v4.3h-6.13Z"/>
  <path class="cls-1" d="M167.06,15.87l-.05,5.21c-.98-.4-1.98-.59-3.02-.59-1.95,0-3.44.56-4.46,1.69s-1.53,2.62-1.53,4.48v12.49h-5.67v-16.55c0-2.44-.12-4.62-.37-6.54h5.35l.46,4.07c.58-1.49,1.49-2.64,2.74-3.43,1.25-.79,2.67-1.19,4.25-1.19.88,0,1.65.12,2.29.37Z"/>
  <path class="cls-1" d="M192.2,16.05v23.09h-5.62v-3.7c-.7,1.28-1.71,2.28-3.02,3-1.31.72-2.8,1.08-4.48,1.08-2.01,0-3.8-.49-5.35-1.46-1.55-.98-2.76-2.36-3.61-4.16s-1.28-3.89-1.28-6.27.43-4.49,1.3-6.33,2.08-3.28,3.64-4.3,3.32-1.53,5.3-1.53c1.68,0,3.17.36,4.48,1.08,1.31.72,2.32,1.71,3.02,3v-3.48h5.62ZM185.02,33.07c1.04-1.31,1.55-3.16,1.55-5.53s-.52-4.31-1.55-5.62c-1.04-1.31-2.52-1.97-4.44-1.97s-3.36.68-4.41,2.04c-1.05,1.36-1.58,3.24-1.58,5.65s.53,4.21,1.58,5.49c1.05,1.28,2.54,1.92,4.46,1.92s3.35-.66,4.39-1.97Z"/>
</svg>