<svg width="84" height="112" viewBox="0 0 84 112" fill="none" xmlns="http://www.w3.org/2000/svg">
<path d="M0.0131422 58.7877C0.0131422 42.7172 0.0131422 26.6423 0.0131422 10.5718C0.0175068 3.74115 3.70997 0.00940444 10.4795 0.00503982C31.4253 0.000675208 52.3667 -0.00368941 73.3125 0.00503982C79.9642 0.00503982 83.709 3.75861 83.7134 10.4146C83.7177 42.9223 83.7308 75.43 83.661 107.938C83.661 109.077 83.1154 110.648 82.2818 111.202C81.6576 111.617 79.9729 110.993 79.0825 110.373C67.3417 102.176 55.6271 93.9447 43.9954 85.5952C42.3194 84.3905 41.3024 84.4953 39.6962 85.6475C28.0514 93.9796 16.3324 102.207 4.61781 110.434C3.87583 110.954 2.92434 111.591 2.12125 111.525C0.283748 111.381 -0.00431627 109.915 4.83474e-05 108.313C0.026236 99.6579 0.0131422 91.0029 0.0131422 82.3522C0.0131422 74.4959 0.0131422 66.644 0.0131422 58.7877ZM4.55671 104.891C5.56057 104.236 6.15852 103.87 6.73029 103.464C17.5371 95.8433 28.3744 88.2576 39.1245 80.554C41.0885 79.1486 42.555 79.0744 44.554 80.5104C55.2997 88.2183 66.1371 95.804 76.9438 103.425C77.5549 103.857 78.1921 104.25 79.1611 104.887V102.469C79.1611 71.8553 79.1611 41.2419 79.1611 10.6285C79.1611 6.03694 77.6378 4.5486 72.9633 4.5486C52.2401 4.54424 31.5169 4.54424 10.7894 4.5486C6.01449 4.5486 4.55234 6.01512 4.55234 10.8031C4.55234 41.2725 4.55234 71.7375 4.55234 102.207C4.55234 102.966 4.55234 103.721 4.55234 104.891H4.55671Z" fill="white"/>
<path d="M57.3867 74.2827C56.9066 74.047 55.8023 73.676 54.8814 73.0344C51.0056 70.3371 47.1473 67.6135 43.3675 64.7853C42.2153 63.9211 41.4559 63.9909 40.3341 64.8246C36.5457 67.6441 32.6568 70.324 28.8378 73.0999C26.9653 74.4573 25.058 74.9417 22.9892 73.6367C21.2303 72.5281 20.6629 70.6339 21.239 68.0544C22.3869 62.8867 23.4737 57.7059 24.7219 52.56C25.106 50.9756 24.7001 50.0285 23.4868 49.0246C19.5673 45.7817 15.7789 42.3817 11.8682 39.13C9.95647 37.5413 8.8304 35.7125 9.69023 33.2509C10.5326 30.8416 12.6625 30.3353 14.9496 30.104C19.8598 29.6021 24.7525 28.9168 29.6714 28.5109C31.2994 28.3756 31.8712 27.638 32.3556 26.2806C33.9138 21.9116 35.5724 17.5732 37.2091 13.2304C38.2042 10.5941 39.7493 9.30222 41.853 9.29785C43.9655 9.29785 45.5237 10.5767 46.5101 13.2086C48.1948 17.691 49.8839 22.1691 51.4988 26.6734C51.9222 27.8475 52.507 28.332 53.8208 28.4542C58.8794 28.9168 63.9205 29.5715 68.9703 30.1171C71.253 30.3615 73.3088 30.9376 74.1206 33.4037C74.928 35.8522 73.7583 37.5588 71.9557 39.0777C68.0101 42.4035 64.1605 45.8428 60.1757 49.1206C58.9186 50.1551 58.6655 51.1415 59.0365 52.6778C60.2979 57.8935 61.437 63.1398 62.5849 68.3773C63.3094 71.6857 61.2319 74.3569 57.3867 74.2783V74.2827ZM25.5687 69.2983C25.7345 69.3769 25.9004 69.4554 26.0619 69.534C29.7762 66.8759 33.4861 64.2179 37.2047 61.5642C42.3331 57.911 41.3205 57.8281 46.4577 61.5118C50.22 64.2091 53.991 66.8934 58.0414 69.7871C57.9803 68.9055 58.0064 68.4035 57.9017 67.9322C56.7145 62.6204 55.6015 57.2956 54.2703 52.0188C53.6942 49.7404 54.0958 48.1255 56.0424 46.7507C57.522 45.7075 58.8314 44.4243 60.2062 43.2371C63.3269 40.5485 66.4432 37.8556 69.7778 34.9749C68.87 34.7523 68.3244 34.5603 67.7657 34.4948C62.3536 33.8794 56.9458 33.1898 51.5206 32.7315C49.5304 32.5656 48.5614 31.7276 47.9417 29.9163C46.6977 26.2806 45.2836 22.7016 43.9219 19.1008C43.3239 17.5164 42.691 15.9452 41.8792 13.8807C41.3991 15.0504 41.1154 15.6877 40.871 16.3423C39.1339 20.9601 37.3924 25.5779 35.6771 30.2044C35.197 31.5007 34.5685 32.5045 32.9841 32.6573C28.7898 33.0588 24.6041 33.5346 20.4184 34.006C18.3845 34.2373 16.355 34.5297 13.841 34.8614C17.6818 38.1567 21.143 41.0286 24.4862 44.0271C31.0986 49.9543 30.4003 47.0431 28.4319 56.1739C27.4891 60.5516 26.5245 64.9206 25.5687 69.2939V69.2983Z" fill="#FFB667"/>
</svg>
