<svg width="260" height="182" viewBox="0 0 260 182" fill="none" xmlns="http://www.w3.org/2000/svg">
<path d="M79.7672 83.9987V84C79.7672 112.705 102.256 136.133 129.97 136.133C157.683 136.133 180.172 112.705 180.172 84C180.172 38.5337 215.466 1.56483 259 1.00641V31.877C231.748 32.4325 209.798 55.6408 209.798 84C209.798 129.752 174.021 167 130.03 167C86.0385 167 50.2023 129.814 50.2023 84C50.2023 55.6408 28.2523 32.4325 1 31.877V1.00641C44.5339 1.56482 79.8269 38.5336 79.7672 83.9987Z" stroke="white" stroke-opacity="0.06" stroke-width="2"/>
<path d="M209.809 98C209.809 126.359 231.754 149.567 259 150.123V180.994C215.477 180.435 180.191 143.466 180.191 98C180.191 69.295 157.707 45.8668 130 45.8668C102.293 45.8668 79.8092 69.295 79.8092 98C79.8092 143.466 44.523 180.435 1 180.994V150.123C28.2458 149.567 50.1901 126.36 50.1908 98.0013C50.2509 52.1859 86.0797 15 130.061 15C174.041 15 209.809 52.1849 209.809 98Z" stroke="white" stroke-opacity="0.06" stroke-width="2"/>
</svg>
